<?xml version="1.0" encoding="UTF-8"?>
<svg version="1.1" xmlns="http://www.w3.org/2000/svg" width="300" height="242">
<path d="M0 0 C19.40375065 -0.76206738 19.40375065 -0.76206738 27.75390625 -0.92773438 C33.42747642 -1.04083649 39.09515836 -1.17369785 44.76416016 -1.43334961 C75.23604862 -2.79284338 75.23604862 -2.79284338 83.02627563 1.7741394 C87.62202998 5.98731698 90.32874566 10.80912116 92.78727722 16.4776001 C94.90327664 20.87876814 97.95041386 24.59812719 100.9375 28.4375 C101.58243408 29.31374023 102.22736816 30.18998047 102.8918457 31.09277344 C107.11033551 36.81052916 111.3601293 42.50427259 115.625 48.1875 C116.24511963 49.01427246 116.86523926 49.84104492 117.50415039 50.69287109 C120.51791652 54.70725992 123.5402754 58.71473866 126.578125 62.7109375 C127.4141626 63.81465698 127.4141626 63.81465698 128.26708984 64.94067383 C129.31089184 66.31809307 130.357911 67.69308245 131.40869141 69.06518555 C133.40000733 71.69694043 134.94854261 73.84562783 136 77 C91.12 77 46.24 77 0 77 C0 51.59 0 26.18 0 0 Z " fill="#AA191E" transform="translate(156,128)"/>
<path d="M0 0 C0.73511307 0.00359528 1.47022614 0.00719055 2.22761536 0.01089478 C2.99829346 0.01074875 3.76897156 0.01060272 4.56300354 0.01045227 C7.12237823 0.01115157 9.68168104 0.01894471 12.24104309 0.02676392 C14.01081299 0.02862804 15.7805834 0.03005197 17.550354 0.03105164 C22.2176505 0.03487728 26.88491607 0.04470796 31.55220032 0.05575562 C37.14721284 0.0677631 42.74223568 0.07237175 48.33725739 0.07820892 C56.84557207 0.0879197 65.35381886 0.10707592 73.86213684 0.12442017 C73.86213684 25.53442017 73.86213684 50.94442017 73.86213684 77.12442017 C28.98213684 77.12442017 -15.89786316 77.12442017 -62.13786316 77.12442017 C-62.13786316 76.46442017 -62.13786316 75.80442017 -62.13786316 75.12442017 C-61.47786316 75.12442017 -60.81786316 75.12442017 -60.13786316 75.12442017 C-59.85894226 74.53846069 -59.58002136 73.95250122 -59.29264832 73.3487854 C-58.20914335 71.26172118 -57.03493554 69.43938767 -55.66130066 67.53457642 C-55.16348083 66.84331665 -54.66566101 66.15205688 -54.15275574 65.43984985 C-53.61159119 64.69638306 -53.07042664 63.95291626 -52.51286316 63.18692017 C-51.94527283 62.40349243 -51.3776825 61.6200647 -50.79289246 60.81289673 C-45.5985396 53.68127409 -40.24704013 46.67326829 -34.87834167 39.67251587 C-31.14800048 34.79798115 -27.48309341 29.89395754 -23.95036316 24.87442017 C-6.41889819 0.01324715 -6.41889819 0.01324715 0 0 Z " fill="#AA191E" transform="translate(67.13786315917969,127.87557983398438)"/>
<path d="M0 0 C0.66 0 1.32 0 2 0 C3.28369141 1.66113281 3.28369141 1.66113281 4.7265625 3.953125 C7.77951478 8.684924 11.02268044 13.22689791 14.375 17.75 C14.97151367 18.55783936 15.56802734 19.36567871 16.18261719 20.19799805 C21.48496812 27.35534888 26.89401955 34.42951154 32.30908203 41.50170898 C36.45070356 46.92478031 40.49156031 52.40088565 44.42382812 57.97705078 C47.93391985 62.94479746 51.57721498 67.80577217 55.23901367 72.66235352 C61.07802001 80.41305633 66.82053789 88.23454695 72.56469727 96.05566406 C74.03305987 98.04478463 75.5141061 100.02395122 77 102 C76.67 102.66 76.34 103.32 76 104 C25.84 104 -24.32 104 -76 104 C-74.58347673 101.16695346 -73.33819215 98.92666563 -71.5234375 96.41015625 C-71.02561768 95.71889648 -70.52779785 95.02763672 -70.01489258 94.31542969 C-69.20314575 93.20022949 -69.20314575 93.20022949 -68.375 92.0625 C-67.80740967 91.27907227 -67.23981934 90.49564453 -66.6550293 89.68847656 C-61.45911582 82.55471125 -56.10531423 75.54517708 -50.73608398 68.54150391 C-46.64791369 63.19805094 -42.66105618 57.80459134 -38.78735352 52.30444336 C-34.58861641 46.36584535 -30.20305732 40.56984352 -25.828125 34.76049805 C-20.75521159 28.02031271 -15.73616785 21.24217721 -10.74316406 14.44262695 C-9.68347827 12.99999331 -8.62187352 11.55876674 -7.55810547 10.11914062 C-6.47469568 8.64562183 -5.40151708 7.16454805 -4.33642578 5.67773438 C-3.80388184 4.94361328 -3.27133789 4.20949219 -2.72265625 3.453125 C-2.24707275 2.78958008 -1.77148926 2.12603516 -1.28149414 1.44238281 C-0.85860107 0.96639648 -0.43570801 0.49041016 0 0 Z " fill="#AA191E" transform="translate(148,10)"/>
<path d="M0 0 C10.625 -0.25 10.625 -0.25 14 2 C14.125 4.875 14.125 4.875 14 8 C14.2475 8.70125 14.495 9.4025 14.75 10.125 C15 12 15 12 13.75 14.25 C9.32301235 17.06717396 5.1710781 16.24624181 0 16 C0 10.72 0 5.44 0 0 Z M5 4 C5 4.66 5 5.32 5 6 C6.32 6 7.64 6 9 6 C9 5.34 9 4.68 9 4 C7.68 4 6.36 4 5 4 Z M5 10 C5 10.66 5 11.32 5 12 C6.65 11.67 8.3 11.34 10 11 C10 10.67 10 10.34 10 10 C8.35 10 6.7 10 5 10 Z " fill="#AA191E" transform="translate(63,218)"/>
<path d="M0 0 C9.03614458 -0.48192771 9.03614458 -0.48192771 13.125 1.5625 C15 4 15 4 15.5625 7.5 C14.92519445 11.46545673 14.1376325 12.60063397 11 15 C7.57067929 16.71466036 3.78283935 16.05404056 0 16 C0 10.72 0 5.44 0 0 Z M4 4 C4 6.31 4 8.62 4 11 C5.98 11 7.96 11 10 11 C10.67958603 8.60280568 10.67958603 8.60280568 11 6 C9.16116119 3.71271266 9.16116119 3.71271266 6.375 3.875 C5.199375 3.936875 5.199375 3.936875 4 4 Z " fill="#AA191E" transform="translate(124,218)"/>
<path d="M0 0 C3.38121991 2.44598887 4.76936783 3.89296559 5.625 8 C4.77618008 12.0743356 3.32274404 13.54405875 0 16 C-3.83305454 16.71869773 -5.43695612 16.32531424 -8.8125 14.375 C-11.48997956 11.4680222 -12 9.93559391 -12 6 C-9.20268456 0.00575263 -6.49372018 -0.66037832 0 0 Z M-7 5 C-7.04063832 6.66617115 -7.042721 8.33388095 -7 10 C-4.525 10.99 -4.525 10.99 -2 12 C-1.01 11.01 -0.02 10.02 1 9 C0.34 7.35 -0.32 5.7 -1 4 C-4.28930404 3.63314303 -4.28930404 3.63314303 -7 5 Z " fill="#AA191E" transform="translate(241,218)"/>
<path d="M0 0 C1.588125 -0.061875 3.17625 -0.12375 4.8125 -0.1875 C6.15248047 -0.23970703 6.15248047 -0.23970703 7.51953125 -0.29296875 C10 0 10 0 11.8125 1.328125 C13.60385359 3.85016229 13.18499541 5.97840832 13 9 C13 10.32 13 11.64 13 13 C13 13.99 13 14.98 13 16 C9 16 9 16 6.25 13.5 C5.5075 12.675 4.765 11.85 4 11 C4 12.65 4 14.3 4 16 C2.68 16 1.36 16 0 16 C0 10.72 0 5.44 0 0 Z M4 4 C4 5.32 4 6.64 4 8 C5.65 7.67 7.3 7.34 9 7 C8.67 6.01 8.34 5.02 8 4 C6.68 4 5.36 4 4 4 Z " fill="#AA191E" transform="translate(208,218)"/>
<path d="M0 0 C1.32 0 2.64 0 4 0 C4.33 3.3 4.66 6.6 5 10 C5.99 10.33 6.98 10.66 8 11 C8.33 7.37 8.66 3.74 9 0 C10.65 0 12.3 0 14 0 C14.10841951 1.91541138 14.18578079 3.83259773 14.25 5.75 C14.29640625 6.81734375 14.3428125 7.8846875 14.390625 8.984375 C14 12 14 12 12.171875 14.359375 C10 16 10 16 7 16.5 C3.26816938 15.87802823 2.29695087 14.96444087 0 12 C-0.390625 8.984375 -0.390625 8.984375 -0.25 5.75 C-0.21390625 4.67234375 -0.1778125 3.5946875 -0.140625 2.484375 C-0.09421875 1.66453125 -0.0478125 0.8446875 0 0 Z " fill="#AA191E" transform="translate(255,218)"/>
<path d="M0 0 C0.99 0.66 1.98 1.32 3 2 C3 2.66 3 3.32 3 4 C-0.07322544 4.91058531 -2.80097361 5.08886184 -6 5 C-6.5534764 7.07553648 -7 8.84365964 -7 11 C-5.68 11 -4.36 11 -3 11 C-2.67 9.68 -2.34 8.36 -2 7 C-0.68 7 0.64 7 2 7 C2.1875 10.375 2.1875 10.375 2 14 C-1.51824511 16.34549674 -2.85775694 16.57991403 -7 16 C-9.875 13.9375 -9.875 13.9375 -12 11 C-12.62491523 7.04220351 -12.61006839 4.99136114 -10.5 1.5625 C-6.77973621 -0.76266487 -4.35782859 -0.41503129 0 0 Z " fill="#AA191E" transform="translate(196,218)"/>
<path d="M0 0 C1.65 0 3.3 0 5 0 C6.00696568 2.10084209 7.0053589 4.20579489 8 6.3125 C8.556875 7.48425781 9.11375 8.65601563 9.6875 9.86328125 C11 13 11 13 11 16 C9.35 15.67 7.7 15.34 6 15 C6 14.01 6 13.02 6 12 C4.02 12.33 2.04 12.66 0 13 C-0.33 13.99 -0.66 14.98 -1 16 C-2.65 16 -4.3 16 -6 16 C-5.23757784 12.38944909 -3.87526626 9.14165375 -2.4375 5.75 C-1.98246094 4.67234375 -1.52742187 3.5946875 -1.05859375 2.484375 C-0.70925781 1.66453125 -0.35992187 0.8446875 0 0 Z M2 6 C1.67 6.99 1.34 7.98 1 9 C1.99 9 2.98 9 4 9 C3.67 8.01 3.34 7.02 3 6 C2.67 6 2.34 6 2 6 Z " fill="#AA191E" transform="translate(152,218)"/>
<path d="M0 0 C1.65 0 3.3 0 5 0 C6.00696568 2.10084209 7.0053589 4.20579489 8 6.3125 C8.556875 7.48425781 9.11375 8.65601563 9.6875 9.86328125 C11 13 11 13 11 16 C9.35 15.67 7.7 15.34 6 15 C6 14.01 6 13.02 6 12 C4.02 12.33 2.04 12.66 0 13 C-0.33 13.99 -0.66 14.98 -1 16 C-2.65 16 -4.3 16 -6 16 C-5.23757784 12.38944909 -3.87526626 9.14165375 -2.4375 5.75 C-1.98246094 4.67234375 -1.52742187 3.5946875 -1.05859375 2.484375 C-0.70925781 1.66453125 -0.35992187 0.8446875 0 0 Z M2 6 C1.67 6.99 1.34 7.98 1 9 C1.99 9 2.98 9 4 9 C3.67 8.01 3.34 7.02 3 6 C2.67 6 2.34 6 2 6 Z " fill="#AA191E" transform="translate(11,218)"/>
<path d="M0 0 C2.29296875 0.09765625 2.29296875 0.09765625 5 1 C6.80078125 3.87109375 6.80078125 3.87109375 8.3125 7.4375 C8.82425781 8.61183594 9.33601563 9.78617188 9.86328125 10.99609375 C11 14 11 14 11 16 C9.35 16 7.7 16 6 16 C5.67 15.01 5.34 14.02 5 13 C2.03 12.505 2.03 12.505 -1 12 C-1.33 13.32 -1.66 14.64 -2 16 C-3.32 16 -4.64 16 -6 16 C-5.37183502 12.05050296 -4.1354471 8.80107972 -2.4375 5.1875 C-1.98246094 4.21167969 -1.52742188 3.23585937 -1.05859375 2.23046875 C-0.70925781 1.49441406 -0.35992187 0.75835937 0 0 Z M2 6 C1.67 6.99 1.34 7.98 1 9 C1.66 9 2.32 9 3 9 C2.67 8.01 2.34 7.02 2 6 Z " fill="#AA191E" transform="translate(91,218)"/>
<path d="M0 0 C8.36923077 -0.36923077 8.36923077 -0.36923077 11.5625 1.5 C12.036875 1.995 12.51125 2.49 13 3 C12.67 5.31 12.34 7.62 12 10 C9.09399739 11.25664978 7.20395416 12 4 12 C4 13.32 4 14.64 4 16 C2.68 16 1.36 16 0 16 C0 10.72 0 5.44 0 0 Z M4 4 C4 5.32 4 6.64 4 8 C5.32 7.67 6.64 7.34 8 7 C8 6.01 8 5.02 8 4 C6.68 4 5.36 4 4 4 Z " fill="#AA191E" transform="translate(279,218)"/>
<path d="M0 0 C1.65 0 3.3 0 5 0 C5.33 3.63 5.66 7.26 6 11 C7.65 11 9.3 11 11 11 C11.33 12.65 11.66 14.3 12 16 C8.04 16 4.08 16 0 16 C0 10.72 0 5.44 0 0 Z " fill="#AA191E" transform="translate(30,218)"/>
<path d="M0 0 C1.32 0 2.64 0 4 0 C4 5.28 4 10.56 4 16 C2.68 16 1.36 16 0 16 C0 10.72 0 5.44 0 0 Z " fill="#AA191E" transform="translate(110,218)"/>
</svg>
